<?xml version="1.0" standalone="no"?><!DOCTYPE svg PUBLIC "-//W3C//DTD SVG 1.1//EN" "http://www.w3.org/Graphics/SVG/1.1/DTD/svg11.dtd"><svg t="1526978227767" class="icon" style="" viewBox="0 0 1024 1024" version="1.1" xmlns="http://www.w3.org/2000/svg" p-id="1223" xmlns:xlink="http://www.w3.org/1999/xlink" width="200" height="200"><defs><style type="text/css"></style></defs><path d="M512 925.696c-29.184-38.62528-75.48928-61.696-128-61.696H32v64H384c52.92544 0 96 32 96 96h64c0-64 43.07456-96 96-96h352v-64H640c-52.51072 0-98.816 23.07072-128 61.696zM640 0c-52.51072 0-98.816 23.07072-128 61.696C482.816 23.07072 436.51072 0 384 0H32v800h384v-64h-320V64H384c52.92544 0 96 32 96 96v640h64v-640c0-64 43.07456-96 96-96h288v672h-320v64h384V0H640z" fill="#1296db" p-id="1224"></path></svg>